<svg width="22" height="20" viewBox="0 0 22 20" fill="none" xmlns="http://www.w3.org/2000/svg">
<path d="M9.5 13.5C9.5 13.87 9.4 14.2 9.22 14.5C8.88 13.91 8.24 13.5 7.5 13.5C6.76 13.5 6.12 13.91 5.78 14.5C5.61 14.2 5.5 13.87 5.5 13.5C5.5 12.4 6.4 11.5 7.5 11.5C8.6 11.5 9.5 12.4 9.5 13.5ZM22 13V16C22 16.55 21.55 17 21 17H20V18C20 19.11 19.11 20 18 20H4C2.9 20 2 19.11 2 18V17H1C0.45 17 0 16.55 0 16V13C0 12.45 0.45 12 1 12H2C2 8.13 5.13 5 9 5H10V3.73C9.4 3.39 9 2.74 9 2C9 0.9 9.9 0 11 0C12.1 0 13 0.9 13 2C13 2.74 12.6 3.39 12 3.73V5H13C16.87 5 20 8.13 20 12H21C21.55 12 22 12.45 22 13ZM20 14H18V12C18 9.24 15.76 7 13 7H9C6.24 7 4 9.24 4 12V14H2V15H4V18H18V15H20V14ZM14.5 11.5C13.4 11.5 12.5 12.4 12.5 13.5C12.5 13.87 12.61 14.2 12.78 14.5C13.12 13.91 13.76 13.5 14.5 13.5C15.24 13.5 15.88 13.91 16.22 14.5C16.4 14.2 16.5 13.87 16.5 13.5C16.5 12.4 15.61 11.5 14.5 11.5Z" fill="#0D0533"/>
</svg>
