<svg width="60" height="52" viewBox="0 0 60 52" fill="none" xmlns="http://www.w3.org/2000/svg">
<path fill-rule="evenodd" clip-rule="evenodd" d="M14.6287 0.641883C14.8578 0.244707 15.2815 3.91219e-06 15.74 3.87207e-06L44.2557 1.37714e-06C44.7142 1.33702e-06 45.1379 0.244706 45.367 0.641882L59.6258 25.3589C59.8547 25.7557 59.8547 26.2443 59.6258 26.6411L45.367 51.3581C45.1379 51.7553 44.7142 52 44.2557 52L15.74 52C15.2815 52 14.8578 51.7553 14.6287 51.3581L0.369936 26.6411C0.141058 26.2443 0.141058 25.7557 0.369936 25.3589L14.6287 0.641883Z" fill="#0B013C"/>
<path d="M29.9995 14C31.5908 14 33.1169 14.6321 34.2422 15.7574C35.3674 16.8826 35.9995 18.4087 35.9995 20C35.9995 21.5913 35.3674 23.1174 34.2422 24.2426C33.1169 25.3679 31.5908 26 29.9995 26C28.4082 26 26.8821 25.3679 25.7569 24.2426C24.6317 23.1174 23.9995 21.5913 23.9995 20C23.9995 18.4087 24.6317 16.8826 25.7569 15.7574C26.8821 14.6321 28.4082 14 29.9995 14ZM29.9995 17C29.2039 17 28.4408 17.3161 27.8782 17.8787C27.3156 18.4413 26.9995 19.2044 26.9995 20C26.9995 20.7956 27.3156 21.5587 27.8782 22.1213C28.4408 22.6839 29.2039 23 29.9995 23C30.7952 23 31.5582 22.6839 32.1208 22.1213C32.6834 21.5587 32.9995 20.7956 32.9995 20C32.9995 19.2044 32.6834 18.4413 32.1208 17.8787C31.5582 17.3161 30.7952 17 29.9995 17ZM29.9995 27.5C34.0045 27.5 41.9995 29.495 41.9995 33.5V38H17.9995V33.5C17.9995 29.495 25.9945 27.5 29.9995 27.5ZM29.9995 30.35C25.5445 30.35 20.8495 32.54 20.8495 33.5V35.15H39.1495V33.5C39.1495 32.54 34.4545 30.35 29.9995 30.35Z" fill="white"/>
</svg>
